<svg width="32" height="32" viewBox="0 0 32 32" fill="none" xmlns="http://www.w3.org/2000/svg">
<path d="M0 12.8C0 8.31958 0 6.07937 0.871948 4.36808C1.63893 2.86278 2.86278 1.63893 4.36808 0.871948C6.07937 0 8.31958 0 12.8 0H19.2C23.6804 0 25.9206 0 27.6319 0.871948C29.1372 1.63893 30.3611 2.86278 31.1281 4.36808C32 6.07937 32 8.31958 32 12.8V32H12.8C8.31958 32 6.07937 32 4.36808 31.1281C2.86278 30.3611 1.63893 29.1372 0.871948 27.6319C0 25.9206 0 23.6804 0 19.2V12.8Z" fill="url(#paint0_linear_463_45556)"/>
<path fill-rule="evenodd" clip-rule="evenodd" d="M12.5 8C13.0523 8 13.5 8.44772 13.5 9V10H17C17.5523 10 18 10.4477 18 11C18 11.5523 17.5523 12 17 12H15.9253C15.718 13.4554 15.0847 15.1194 14.0955 16.5507L15.8931 18.2792C16.2912 18.662 16.3036 19.295 15.9208 19.6931C15.538 20.0912 14.905 20.1036 14.5069 19.7208L12.7973 18.077C11.8205 19.0036 10.6087 19.726 9.17751 19.9841C8.634 20.0822 8.11392 19.721 8.01588 19.1775C7.91784 18.634 8.27898 18.1139 8.82249 18.0159C9.76427 17.846 10.6162 17.3702 11.3539 16.6891L9.30689 14.7208C8.90879 14.338 8.89637 13.705 9.27917 13.3069C9.66196 12.9088 10.295 12.8964 10.6931 13.2792L12.6307 15.1423C13.2875 14.1133 13.7161 12.978 13.8989 12H8C7.44772 12 7 11.5523 7 11C7 10.4477 7.44772 10 8 10H11.5V9C11.5 8.44772 11.9477 8 12.5 8ZM21.5 13C21.9124 13 22.2825 13.2532 22.432 13.6376L25.932 22.6376C26.1322 23.1523 25.8772 23.7318 25.3624 23.932C24.8477 24.1322 24.2682 23.8772 24.068 23.3624L23.5382 22H19.4618L18.932 23.3624C18.7318 23.8772 18.1523 24.1322 17.6376 23.932C17.1228 23.7318 16.8678 23.1523 17.068 22.6376L20.568 13.6376C20.7175 13.2532 21.0876 13 21.5 13ZM20.2396 20H22.7604L21.5 16.759L20.2396 20Z" fill="white"/>
<defs>
<linearGradient id="paint0_linear_463_45556" x1="3.50177e-07" y1="32" x2="26.5" y2="8.5" gradientUnits="userSpaceOnUse">
<stop stop-color="#615FFF"/>
<stop offset="1" stop-color="#9810FA"/>
</linearGradient>
</defs>
</svg>
