<svg width="115" height="32" viewBox="0 0 115 32" fill="none" xmlns="http://www.w3.org/2000/svg">
<path d="M0 12.8C0 8.31958 0 6.07937 0.871948 4.36808C1.63893 2.86278 2.86278 1.63893 4.36808 0.871948C6.07937 0 8.31958 0 12.8 0H19.2C23.6804 0 25.9206 0 27.6319 0.871948C29.1372 1.63893 30.3611 2.86278 31.1281 4.36808C32 6.07937 32 8.31958 32 12.8V32H12.8C8.31958 32 6.07937 32 4.36808 31.1281C2.86278 30.3611 1.63893 29.1372 0.871948 27.6319C0 25.9206 0 23.6804 0 19.2V12.8Z" fill="url(#paint0_linear_463_45556)"/>
<path fill-rule="evenodd" clip-rule="evenodd" d="M12.5 8C13.0523 8 13.5 8.44772 13.5 9V10H17C17.5523 10 18 10.4477 18 11C18 11.5523 17.5523 12 17 12H15.9253C15.718 13.4554 15.0847 15.1194 14.0955 16.5507L15.8931 18.2792C16.2912 18.662 16.3036 19.295 15.9208 19.6931C15.538 20.0912 14.905 20.1036 14.5069 19.7208L12.7973 18.077C11.8205 19.0036 10.6087 19.726 9.17751 19.9841C8.634 20.0822 8.11392 19.721 8.01588 19.1775C7.91784 18.634 8.27898 18.1139 8.82249 18.0159C9.76427 17.846 10.6162 17.3702 11.3539 16.6891L9.30689 14.7208C8.90879 14.338 8.89637 13.705 9.27917 13.3069C9.66196 12.9088 10.295 12.8964 10.6931 13.2792L12.6307 15.1423C13.2875 14.1133 13.7161 12.978 13.8989 12H8C7.44772 12 7 11.5523 7 11C7 10.4477 7.44772 10 8 10H11.5V9C11.5 8.44772 11.9477 8 12.5 8ZM21.5 13C21.9124 13 22.2825 13.2532 22.432 13.6376L25.932 22.6376C26.1322 23.1523 25.8772 23.7318 25.3624 23.932C24.8477 24.1322 24.2682 23.8772 24.068 23.3624L23.5382 22H19.4618L18.932 23.3624C18.7318 23.8772 18.1523 24.1322 17.6376 23.932C17.1228 23.7318 16.8678 23.1523 17.068 22.6376L20.568 13.6376C20.7175 13.2532 21.0876 13 21.5 13ZM20.2396 20H22.7604L21.5 16.759L20.2396 20Z" fill="white"/>
<path d="M46.96 25.312C43.336 25.312 40.744 22.672 40.744 18.976C40.744 15.232 43.264 12.616 46.888 12.616C50.656 12.616 53.008 15.088 53.008 19V19.936L44.296 19.984C44.512 21.568 45.4 22.312 47.032 22.312C48.424 22.312 49.408 21.808 49.672 20.944H53.056C52.624 23.608 50.248 25.312 46.96 25.312ZM46.912 15.616C45.448 15.616 44.632 16.264 44.344 17.704H49.336C49.336 16.432 48.4 15.616 46.912 15.616ZM53.7679 30.76V27.664H55.8079C57.0559 27.664 57.5839 27.28 58.0639 25.984L58.2799 25.408L53.4559 13H57.4159L60.0319 20.704L62.9359 13H66.7759L60.6799 27.616C59.6719 30.064 58.3279 31.096 56.2159 31.096C55.3279 31.096 54.4879 30.976 53.7679 30.76ZM67.0827 21.208H70.5867C70.6347 22.048 71.2587 22.552 72.3867 22.552C73.5387 22.552 74.0667 22.144 74.0667 21.52C74.0667 21.16 73.8747 20.776 72.9867 20.584L70.7787 20.104C68.5707 19.624 67.4907 18.664 67.4907 16.552C67.4907 14.056 69.6267 12.616 72.5067 12.616C75.2907 12.616 77.2347 14.248 77.2347 16.672H73.7307C73.7307 15.856 73.2267 15.304 72.3387 15.304C71.4987 15.304 70.9707 15.736 70.9707 16.384C70.9707 16.936 71.4267 17.248 72.2667 17.44L74.4987 17.92C76.4667 18.352 77.5467 19.264 77.5467 21.184C77.5467 23.752 75.3627 25.312 72.2427 25.312C69.0747 25.312 67.0827 23.632 67.0827 21.208ZM81.3019 11.128C80.1259 11.128 79.1899 10.192 79.1899 9.016C79.1899 7.84 80.1259 6.928 81.3019 6.928C82.4539 6.928 83.3899 7.84 83.3899 9.016C83.3899 10.192 82.4539 11.128 81.3019 11.128ZM79.4779 25V13H83.1739V25H79.4779ZM85.3467 18.784C85.3467 15.136 87.7227 12.592 91.1067 12.592C92.7387 12.592 94.0347 13.216 94.6827 14.2L94.8747 13H98.3547V24.232C98.3547 28.528 95.8827 31.12 91.7787 31.12C88.1067 31.12 85.6347 29.032 85.2987 25.624H89.0427C89.1147 26.968 90.1227 27.76 91.7547 27.76C93.5307 27.76 94.6587 26.704 94.6587 25V23.44C93.9387 24.304 92.5947 24.856 91.0347 24.856C87.6747 24.856 85.3467 22.384 85.3467 18.784ZM89.0667 18.688C89.0667 20.416 90.2187 21.64 91.8507 21.64C93.5307 21.64 94.6587 20.464 94.6587 18.688C94.6587 16.936 93.5307 15.808 91.8267 15.808C90.1947 15.808 89.0667 16.984 89.0667 18.688ZM104.83 25H101.134V13H104.614L104.854 14.248C105.598 13.216 106.966 12.616 108.526 12.616C111.382 12.616 113.038 14.44 113.038 17.584V25H109.342V18.472C109.342 16.96 108.502 15.976 107.23 15.976C105.766 15.976 104.83 16.936 104.83 18.424V25Z" fill="white"/>
<defs>
<linearGradient id="paint0_linear_463_45556" x1="3.50177e-07" y1="32" x2="26.5" y2="8.5" gradientUnits="userSpaceOnUse">
<stop stop-color="#615FFF"/>
<stop offset="1" stop-color="#9810FA"/>
</linearGradient>
</defs>
</svg>
